HIERARCHY
ROOT Hips
{
	OFFSET -0.001795 -0.223333 0.028219
	CHANNELS 6 Xposition Yposition Zposition Zrotation Yrotation Xrotation 
	JOINT LeftUpLeg
	{
		OFFSET 0.069520 -0.091406 -0.006815
		CHANNELS 3 Zrotation Yrotation Xrotation
		JOINT LeftLeg
		{
			OFFSET 0.034277 -0.375199 -0.004496
			CHANNELS 3 Zrotation Yrotation Xrotation
			JOINT LeftFoot
			{
				OFFSET -0.013596 -0.397961 -0.043693
				CHANNELS 3 Zrotation Yrotation Xrotation
				JOINT LeftToe
				{
					OFFSET 0.026358 -0.055791 0.119288
					CHANNELS 3 Zrotation Yrotation Xrotation
					End Site
					{
						OFFSET 0.000000 0.000000 0.000000
					}
				}
			}
		}
	}
	JOINT RightUpLeg
	{
		OFFSET -0.067670 -0.090522 -0.004320
		CHANNELS 3 Zrotation Yrotation Xrotation
		JOINT RightLeg
		{
			OFFSET -0.038290 -0.382569 -0.008850
			CHANNELS 3 Zrotation Yrotation Xrotation
			JOINT RightFoot
			{
				OFFSET 0.015774 -0.398415 -0.042312
				CHANNELS 3 Zrotation Yrotation Xrotation
				JOINT RightToe
				{
					OFFSET -0.025372 -0.048144 0.123348
					CHANNELS 3 Zrotation Yrotation Xrotation
					End Site
					{
						OFFSET 0.000000 0.000000 0.000000
					}
				}
			}
		}
	}
	JOINT Spine
	{
		OFFSET -0.002533 0.108963 -0.026696
		CHANNELS 3 Zrotation Yrotation Xrotation
		JOINT Spine1
		{
			OFFSET 0.005487 0.135180 0.001092
			CHANNELS 3 Zrotation Yrotation Xrotation
			JOINT Spine2
			{
				OFFSET 0.001457 0.052922 0.025425
				CHANNELS 3 Zrotation Yrotation Xrotation
				JOINT Neck
				{
					OFFSET -0.002778 0.213870 -0.042857
					CHANNELS 3 Zrotation Yrotation Xrotation
					JOINT Head
					{
						OFFSET 0.005152 0.064970 0.051349
						CHANNELS 3 Zrotation Yrotation Xrotation
						End Site
						{
							OFFSET 0.000000 0.000000 0.000000
						}
					}
				}
				JOINT LeftShoulder
				{
					OFFSET 0.078845 0.121749 -0.034090
					CHANNELS 3 Zrotation Yrotation Xrotation
					JOINT LeftArm
					{
						OFFSET 0.090977 0.030469 -0.008868
						CHANNELS 3 Zrotation Yrotation Xrotation
						JOINT LeftForeArm
						{
							OFFSET 0.259612 -0.012772 -0.027456
							CHANNELS 3 Zrotation Yrotation Xrotation
							JOINT LeftHand
							{
								OFFSET 0.249234 0.008986 -0.001171
								CHANNELS 3 Zrotation Yrotation Xrotation
								End Site
								{
									OFFSET 0.000000 0.000000 0.000000
								}
							}
						}
					}
				}
				JOINT RightShoulder
				{
					OFFSET -0.081759 0.118833 -0.038615
					CHANNELS 3 Zrotation Yrotation Xrotation
					JOINT RightArm
					{
						OFFSET -0.096012 0.032551 -0.009143
						CHANNELS 3 Zrotation Yrotation Xrotation
						JOINT RightForeArm
						{
							OFFSET -0.253742 -0.013329 -0.021401
							CHANNELS 3 Zrotation Yrotation Xrotation
							JOINT RightHand
							{
								OFFSET -0.255298 0.007772 -0.005559
								CHANNELS 3 Zrotation Yrotation Xrotation
								End Site
								{
									OFFSET 0.000000 0.000000 0.000000
								}
							}
						}
					}
				}
			}
		}
	}
}
MOTION
Frames: 12
Frame Time: 0.050000
0.005581 0.958192 0.003681 0.603225 -8.634489 7.864416 5.843311 -0.429234 -9.682865 -3.877266 0.568930 6.678552 3.688627 9.063682 7.629337 0.000000 0.000000 0.000000 -2.786407 1.045709 -11.222652 -2.749472 0.796588 7.574636 -1.120198 -5.692726 5.499994 0.000000 0.000000 0.000000 4.715144 0.595471 -8.172464 -0.235301 0.122030 -2.988593 -10.393773 -0.930066 5.423416 4.988981 -1.846531 -19.369486 0.000000 0.000000 0.000000 -13.748528 -10.705003 4.627009 -39.393940 -36.116962 6.842626 40.549075 -56.736242 -18.689034 0.000000 0.000000 0.000000 15.730458 -4.620751 -4.462518 61.162133 -1.458707 -6.817501 24.824783 42.999405 10.478019 0.000000 0.000000 0.000000 
0.007184 0.958425 0.002528 0.502713 -9.739438 7.456672 5.736947 -0.417524 -9.901872 -3.994353 0.649525 8.306271 4.194487 9.852334 7.218871 0.000000 0.000000 0.000000 -2.706654 1.053827 -11.216777 -2.887630 0.839948 7.792550 -0.716846 -4.636356 4.985462 0.000000 0.000000 0.000000 5.116901 0.601881 -7.887578 -0.236699 0.113722 -3.158616 -10.172319 -2.288696 5.374013 3.789966 -1.428186 -18.957917 0.000000 0.000000 0.000000 -11.867400 -11.885876 5.441827 -35.092721 -42.052033 7.773086 48.786197 -47.520569 -18.646928 0.000000 0.000000 0.000000 15.253470 -4.565967 -4.723038 61.033424 -1.612937 -6.942363 27.447414 46.680003 12.191019 0.000000 0.000000 0.000000 
0.008635 0.958346 0.001376 0.623890 -11.019731 7.359271 5.277715 -0.436062 -10.009694 -4.080999 0.714439 8.915519 4.791169 10.878496 7.565338 0.000000 0.000000 0.000000 -2.727282 1.068896 -11.293683 -3.340393 0.918312 7.828327 -0.091027 -3.276060 4.870640 0.000000 0.000000 0.000000 5.161625 0.617633 -7.878230 0.009037 -0.003299 -3.497574 -10.069980 -3.184911 5.520874 2.989486 -1.194831 -18.511276 0.000000 0.000000 0.000000 -9.506746 -12.937697 5.953681 -30.053791 -46.538873 7.664157 48.674120 -38.686179 -14.467914 0.000000 0.000000 0.000000 14.660410 -4.856787 -5.030489 61.009866 -1.877140 -7.167219 31.297419 49.792128 14.499772 0.000000 0.000000 0.000000 
0.009762 0.958154 0.000280 0.532967 -12.252705 7.096914 5.322706 -0.413314 -10.309088 -4.267106 0.845369 10.497694 5.354235 11.805268 7.372791 0.000000 0.000000 0.000000 -2.634179 1.095184 -11.462937 -3.588491 1.021911 8.469096 0.508830 -1.617421 4.219093 0.000000 0.000000 0.000000 5.430390 0.635477 -7.766716 0.021353 -0.018597 -3.394327 -9.814769 -4.102341 5.406284 2.184340 -0.883901 -18.839237 0.000000 0.000000 0.000000 -7.966595 -13.120749 6.052287 -25.559783 -49.075514 6.905043 46.611154 -34.174559 -11.751412 0.000000 0.000000 0.000000 14.254128 -5.182758 -5.363957 60.891047 -2.071542 -7.327612 36.195339 52.283846 17.324965 0.000000 0.000000 0.000000 
0.010330 0.957947 -0.000767 0.322637 -13.408763 7.022920 5.270341 -0.393468 -10.282948 -4.233302 0.896189 11.040392 5.784579 12.512183 7.333921 0.000000 0.000000 0.000000 -2.318254 1.140593 -11.742261 -3.978653 1.136826 8.930646 0.889611 -0.629201 3.933328 0.000000 0.000000 0.000000 5.404661 0.619055 -7.500006 0.392215 -0.187867 -3.596460 -9.581004 -4.692575 5.310584 1.895927 -0.860054 -18.727253 0.000000 0.000000 0.000000 -7.190876 -13.430314 6.233956 -22.303165 -49.433297 5.884186 45.105188 -32.335705 -10.490837 0.000000 0.000000 0.000000 14.186389 -5.397418 -5.666253 60.656202 -2.094150 -7.342981 40.495201 53.883323 19.800181 0.000000 0.000000 0.000000 
0.010503 0.957969 -0.001583 0.167839 -14.751145 6.793931 5.275962 -0.358723 -10.110305 -4.298726 0.992577 11.752096 6.379241 13.516369 7.401627 0.000000 0.000000 0.000000 -2.175044 1.169390 -11.898393 -4.034048 1.178641 9.190408 1.683246 0.950662 4.180128 0.000000 0.000000 0.000000 5.397390 0.609253 -7.250084 0.498126 -0.243741 -3.509772 -9.386128 -4.961719 5.114549 1.622938 -0.777506 -19.299826 0.000000 0.000000 0.000000 -6.583688 -13.181287 6.140389 -21.166744 -48.995283 5.462363 44.288263 -31.910142 -9.980966 0.000000 0.000000 0.000000 13.857888 -5.479909 -5.781031 60.943755 -2.015330 -7.412345 43.127217 54.323488 21.060236 0.000000 0.000000 0.000000 
0.010338 0.957999 -0.002081 -0.042683 -15.452656 6.655692 5.432519 -0.317361 -9.658305 -4.424093 1.030161 11.392274 6.685609 14.031985 7.595715 0.000000 0.000000 0.000000 -1.921878 1.180664 -11.892680 -4.153137 1.234994 9.491225 1.890695 1.539309 3.980209 0.000000 0.000000 0.000000 5.429847 0.601227 -7.080705 0.560963 -0.276275 -3.501810 -9.197608 -5.171182 5.117688 1.802156 -0.936668 -19.495200 0.000000 0.000000 0.000000 -6.899599 -12.724193 6.072068 -21.328545 -47.729976 5.238352 45.345142 -33.036552 -10.569425 0.000000 0.000000 0.000000 13.774854 -5.916038 -6.055912 61.037117 -2.428001 -7.695030 45.071744 53.814150 21.647569 0.000000 0.000000 0.000000 
0.010078 0.958135 -0.002227 -0.186692 -16.532841 6.264605 5.621487 -0.255328 -8.869717 -4.506787 1.065350 10.963395 7.218237 14.928275 7.927676 0.000000 0.000000 0.000000 -1.894172 1.153989 -11.595611 -4.020425 1.221150 9.527194 2.431389 2.514337 4.260595 0.000000 0.000000 0.000000 5.324191 0.591794 -6.885051 0.713186 -0.349697 -3.402736 -9.146938 -4.803853 5.172328 1.932033 -1.048060 -19.352740 0.000000 0.000000 0.000000 -7.297829 -12.195900 5.933825 -21.891279 -46.484398 5.119269 46.464837 -33.661148 -11.048950 0.000000 0.000000 0.000000 13.493002 -6.051332 -6.064736 61.069252 -2.328668 -7.706525 45.125991 52.998499 21.200488 0.000000 0.000000 0.000000 
0.009822 0.958328 -0.002220 -0.327090 -17.030460 6.061004 5.722624 -0.222123 -8.321510 -4.446916 1.049204 10.652244 7.394368 15.204038 8.265351 0.000000 0.000000 0.000000 -1.801457 1.134852 -11.383202 -4.010204 1.237325 9.664676 2.700098 3.080326 4.297081 0.000000 0.000000 0.000000 5.288408 0.593641 -6.845104 0.617563 -0.312911 -3.361894 -8.946094 -4.806033 5.263616 2.051259 -1.141078 -19.595872 0.000000 0.000000 0.000000 -8.018550 -11.643710 5.856408 -22.631789 -44.890113 4.943895 48.679380 -34.212234 -11.808965 0.000000 0.000000 0.000000 13.342786 -6.254871 -6.158308 61.169816 -2.346625 -7.783995 43.704145 52.147295 19.978656 0.000000 0.000000 0.000000 
0.009612 0.958605 -0.002281 -0.594840 -17.821389 5.898139 6.019692 -0.160537 -7.604315 -4.303707 0.996222 9.890327 7.641114 15.563769 8.794594 0.000000 0.000000 0.000000 -1.705520 1.135280 -11.332910 -4.183833 1.295890 9.878370 3.213640 4.087180 4.467979 0.000000 0.000000 0.000000 5.210146 0.611341 -6.924093 0.607567 -0.317323 -3.502429 -8.627792 -4.564474 5.597954 2.453775 -1.424860 -19.357381 0.000000 0.000000 0.000000 -8.057956 -10.994273 5.611608 -23.176493 -43.551651 4.778005 49.859268 -33.935684 -11.916479 0.000000 0.000000 0.000000 12.716375 -6.120483 -5.940852 61.073830 -2.086408 -7.746795 42.940961 51.577010 19.265637 0.000000 0.000000 0.000000 
0.009544 0.958973 -0.002458 -0.950781 -18.200013 5.943388 6.394242 -0.112072 -7.352423 -4.184702 0.972643 9.787247 7.738043 15.709111 8.860646 0.000000 0.000000 0.000000 -1.443198 1.144631 -11.341101 -4.345932 1.323965 9.866470 3.740888 4.984924 4.826907 0.000000 0.000000 0.000000 5.284917 0.655045 -7.220840 0.388823 -0.228069 -3.547828 -8.255298 -4.327834 6.070573 2.604517 -1.526725 -19.566626 0.000000 0.000000 0.000000 -8.068021 -10.354726 5.341569 -24.207143 -42.761939 4.869536 50.926746 -33.989654 -12.147415 0.000000 0.000000 0.000000 12.186759 -6.288288 -5.853730 61.358569 -1.384697 -7.551581 41.811364 51.488549 18.661933 0.000000 0.000000 0.000000 
0.009591 0.959191 -0.002666 -1.256800 -19.056349 5.964093 6.379821 -0.087157 -6.945663 -4.023586 0.930838 9.266138 8.185625 16.393796 9.459810 0.000000 0.000000 0.000000 -1.286368 1.154758 -11.362588 -4.489438 1.361230 9.936462 4.279676 6.085544 4.944313 0.000000 0.000000 0.000000 5.238490 0.688322 -7.422311 0.456192 -0.266831 -3.738647 -7.991568 -3.592130 6.344516 3.223334 -1.878808 -19.393063 0.000000 0.000000 0.000000 -8.027231 -9.688160 5.014234 -26.154378 -41.032781 4.974764 51.554932 -35.496888 -12.897690 0.000000 0.000000 0.000000 11.502918 -6.439588 -5.670965 61.328529 -0.397884 -7.127866 41.210380 51.638157 18.478379 0.000000 0.000000 0.000000 
